<svg xmlns="http://www.w3.org/2000/svg" viewBox="0 0 1440 320"><path fill="#F18C5C" fill-opacity="1" d="M0,32L30,69.3C60,107,120,181,180,181.3C240,181,300,107,360,90.7C420,75,480,117,540,149.3C600,181,660,203,720,202.7C780,203,840,181,900,186.7C960,192,1020,224,1080,224C1140,224,1200,192,1260,170.7C1320,149,1380,139,1410,133.3L1440,128L1440,320L1410,320C1380,320,1320,320,1260,320C1200,320,1140,320,1080,320C1020,320,960,320,900,320C840,320,780,320,720,320C660,320,600,320,540,320C480,320,420,320,360,320C300,320,240,320,180,320C120,320,60,320,30,320L0,320Z"></path></svg>