<svg xmlns="http://www.w3.org/2000/svg" viewBox="0 0 1440 320"><path fill="#F18C5C" fill-opacity="1" d="M0,32L30,64C60,96,120,160,180,170.7C240,181,300,139,360,149.3C420,160,480,224,540,213.3C600,203,660,117,720,80C780,43,840,53,900,64C960,75,1020,85,1080,122.7C1140,160,1200,224,1260,213.3C1320,203,1380,117,1410,74.7L1440,32L1440,320L1410,320C1380,320,1320,320,1260,320C1200,320,1140,320,1080,320C1020,320,960,320,900,320C840,320,780,320,720,320C660,320,600,320,540,320C480,320,420,320,360,320C300,320,240,320,180,320C120,320,60,320,30,320L0,320Z"></path></svg>