<svg xmlns="http://www.w3.org/2000/svg" viewBox="0 0 1440 320"><path fill="#F18C5C" fill-opacity="1" d="M0,128L30,154.7C60,181,120,235,180,224C240,213,300,139,360,96C420,53,480,43,540,58.7C600,75,660,117,720,122.7C780,128,840,96,900,106.7C960,117,1020,171,1080,165.3C1140,160,1200,96,1260,80C1320,64,1380,96,1410,112L1440,128L1440,320L1410,320C1380,320,1320,320,1260,320C1200,320,1140,320,1080,320C1020,320,960,320,900,320C840,320,780,320,720,320C660,320,600,320,540,320C480,320,420,320,360,320C300,320,240,320,180,320C120,320,60,320,30,320L0,320Z"></path></svg>